<svg width="31" height="29" viewBox="0 0 31 29" fill="none" xmlns="http://www.w3.org/2000/svg">
<path d="M2.81616 3.5H7.12385L10.01 16.89C10.1085 17.3504 10.3782 17.764 10.772 18.0583C11.1657 18.3526 11.6585 18.509 12.1639 18.5H22.6315C23.1369 18.509 23.6297 18.3526 24.0234 18.0583C24.4172 17.764 24.6869 17.3504 24.7854 16.89L26.5085 8.5H8.20078M12.5085 23.5C12.5085 24.0523 12.0263 24.5 11.4315 24.5C10.8368 24.5 10.3546 24.0523 10.3546 23.5C10.3546 22.9477 10.8368 22.5 11.4315 22.5C12.0263 22.5 12.5085 22.9477 12.5085 23.5ZM24.3546 23.5C24.3546 24.0523 23.8725 24.5 23.2777 24.5C22.6829 24.5 22.2008 24.0523 22.2008 23.5C22.2008 22.9477 22.6829 22.5 23.2777 22.5C23.8725 22.5 24.3546 22.9477 24.3546 23.5Z" stroke="#999999" stroke-linecap="round" stroke-linejoin="round"/>
</svg>
